<svg xmlns="http://www.w3.org/2000/svg" width="32" height="32" viewBox="0 0 32 32" fill="none">
  <rect width="32" height="32" rx="8" fill="url(#gradient)" transform="rotate(45 16 16)"/>
  <path d="M21 18V14C21 13.4696 20.7893 12.9609 20.4142 12.5858C20.0391 12.2107 19.5304 12 19 12H13C12.4696 12 11.9609 12.2107 11.5858 12.5858C11.2107 12.9609 11 13.4696 11 14V18C11 18.5304 11.2107 19.0391 11.5858 19.4142C11.9609 19.7893 12.4696 20 13 20H19C19.5304 20 20.0391 19.7893 20.4142 19.4142C20.7893 19.0391 21 18.5304 21 18ZM13 14H19V18H13V14ZM16 15.5C15.7348 15.5 15.4804 15.6054 15.2929 15.7929C15.1054 15.9804 15 16.2348 15 16.5C15 16.7652 15.1054 17.0196 15.2929 17.2071C15.4804 17.3946 15.7348 17.5 16 17.5C16.2652 17.5 16.5196 17.3946 16.7071 17.2071C16.8946 17.0196 17 16.7652 17 16.5C17 16.2348 16.8946 15.9804 16.7071 15.7929C16.5196 15.6054 16.2652 15.5 16 15.5Z" fill="white"/>
  <defs>
    <linearGradient id="gradient" x1="0" y1="0" x2="32" y2="32" gradientUnits="userSpaceOnUse">
      <stop offset="0%" stop-color="#0077b6"/>
      <stop offset="100%" stop-color="#3B82F6"/>
    </linearGradient>
  </defs>
</svg>